<svg version="1.1" xmlns="http://www.w3.org/2000/svg" xmlns:xlink="http://www.w3.org/1999/xlink" width="386.66667" height="207.66667"><g transform="translate(-17.33333,-64)"><g data-paper-data="{&quot;isPaintingLayer&quot;:true}" fill="none" fill-rule="nonzero" stroke="none" stroke-width="none" stroke-linecap="none" stroke-linejoin="miter" stroke-miterlimit="10" stroke-dasharray="" stroke-dashoffset="0" font-family="none" font-weight="none" font-size="none" text-anchor="none" style="mix-blend-mode: normal"><path d="M99,171v-106h304v106z" fill="#ff8266" stroke="#000000" stroke-width="2" stroke-linecap="butt"/><path d="M403,67l-167,46l-137,-44" fill="none" stroke="#000000" stroke-width="2" stroke-linecap="round"/><path d="M99,171l136,-58l164,55" fill="none" stroke="#000000" stroke-width="2" stroke-linecap="round"/><path d="M115.33333,227.12122c0,24.60178 -21.93805,44.54545 -49,44.54545c-27.06195,0 -49,-19.94368 -49,-44.54545c0,-24.60178 21.93805,-44.54545 49,-44.54545c27.06195,0 49,19.94368 49,44.54545z" data-paper-data="{&quot;origPos&quot;:null}" fill="#74e362" stroke="none" stroke-width="0" stroke-linecap="butt"/><path d="M56.33333,214.66667c0,3.31371 -2.46243,6 -5.5,6c-3.03757,0 -5.5,-2.68629 -5.5,-6c0,-3.31371 2.46243,-6 5.5,-6c3.03757,0 5.5,2.68629 5.5,6z" data-paper-data="{&quot;origPos&quot;:null}" fill="#e36262" stroke="none" stroke-width="0" stroke-linecap="butt"/><path d="M105.33333,216.66667c0,2.76142 -1.567,5 -3.5,5c-1.933,0 -3.5,-2.23858 -3.5,-5c0,-2.76142 1.567,-5 3.5,-5c1.933,0 3.5,2.23858 3.5,5z" data-paper-data="{&quot;origPos&quot;:null}" fill="#e36262" stroke="none" stroke-width="0" stroke-linecap="butt"/><path d="M75.33333,235.66667c0,2.20914 -2.68629,4 -6,4c-3.31371,0 -6,-1.79086 -6,-4c0,-2.20914 2.68629,-4 6,-4c3.31371,0 6,1.79086 6,4z" data-paper-data="{&quot;origPos&quot;:null}" fill="#e36262" stroke="none" stroke-width="0" stroke-linecap="butt"/><path d="M105.33333,247.66667c0,2.20914 -2.01472,4 -4.5,4c-2.48528,0 -4.5,-1.79086 -4.5,-4c0,-2.20914 2.01472,-4 4.5,-4c2.48528,0 4.5,1.79086 4.5,4z" data-paper-data="{&quot;origPos&quot;:null}" fill="#e36262" stroke="none" stroke-width="0" stroke-linecap="butt"/><path d="M38.33333,241.66667c0,2.76142 -1.11929,5 -2.5,5c-1.38071,0 -2.5,-2.23858 -2.5,-5c0,-2.76142 1.11929,-5 2.5,-5c1.38071,0 2.5,2.23858 2.5,5z" data-paper-data="{&quot;origPos&quot;:null}" fill="#e36262" stroke="none" stroke-width="0" stroke-linecap="butt"/><path d="M73.33333,254.16667c0,1.933 -3.80558,3.5 -8.5,3.5c-4.69442,0 -8.5,-1.567 -8.5,-3.5c0,-1.933 3.80558,-3.5 8.5,-3.5c4.69442,0 8.5,1.567 8.5,3.5z" data-paper-data="{&quot;origPos&quot;:null}" fill="#e36262" stroke="none" stroke-width="0" stroke-linecap="butt"/></g></g></svg>