<svg version="1.1" xmlns="http://www.w3.org/2000/svg" xmlns:xlink="http://www.w3.org/1999/xlink" width="20.40037" height="19.78734"><g transform="translate(-231.9547,-168.11601)"><g data-paper-data="{&quot;isPaintingLayer&quot;:true}" fill="none" fill-rule="nonzero" stroke="none" stroke-width="none" stroke-linecap="butt" stroke-linejoin="miter" stroke-miterlimit="10" stroke-dasharray="" stroke-dashoffset="0" font-family="none" font-weight="none" font-size="none" text-anchor="none" style="mix-blend-mode: normal"><path d="M232.9547,186.90335v-17.78734h18.40037v17.78734z" data-paper-data="{&quot;origPos&quot;:null}" fill="#9966ff" stroke="#000000" stroke-width="2"/><path d="M236.87596,175.11908c0,-0.82843 0.67157,-1.5 1.5,-1.5c0.82843,0 1.5,0.67157 1.5,1.5c0,0.82843 -0.67157,1.5 -1.5,1.5c-0.82843,0 -1.5,-0.67157 -1.5,-1.5z" fill="#000000" stroke="none" stroke-width="0.5"/><path d="M245.16611,175.11908c0,-0.82843 0.67157,-1.5 1.5,-1.5c0.82843,0 1.5,0.67157 1.5,1.5c0,0.82843 -0.67157,1.5 -1.5,1.5c-0.82843,0 -1.5,-0.67157 -1.5,-1.5z" fill="#000000" stroke="none" stroke-width="0.5"/><path d="M237.17596,177.12443c-0.20001,-0.26668 -0.29631,-0.51854 -0.32511,-0.74901l-0.11433,0.02858l-0.36029,-1.44117c-0.03452,-0.12628 -0.05294,-0.25921 -0.05294,-0.39644c0,-0.82843 0.67157,-1.5 1.5,-1.5c0.37581,0 0.71934,0.1382 0.98254,0.36656c0.22498,0.19284 1.07036,0.91745 1.28323,1.09991c0,0 1.13888,0.97619 0.1627,2.11507c-0.30611,0.35713 -0.62821,0.50628 -0.92618,0.54277l-0.0496,0.23372c0,0 -1.2,0.9 -2.1,-0.3z" fill="#9966ff" stroke="none" stroke-width="0.5"/><path d="M244.84244,176.95668c-0.13134,-0.52535 -0.0256,-0.90845 0.16315,-1.18355c-0.03814,-0.0486 -0.07574,-0.09882 -0.11276,-0.15065c0,0 -0.87186,-1.2206 0.34874,-2.09246c0.60948,-0.43534 1.13201,-0.34898 1.50246,-0.15336l0.65457,-0.75565c0,0 1.39272,-0.55709 1.9498,0.83563c0.31386,0.78464 0.00883,1.30405 -0.31736,1.60803l0.11113,-0.07329c-0.04905,0.11037 -0.10029,0.21571 -0.15351,0.31605c0.09048,0.13334 0.16705,0.29622 0.22255,0.49478c0.01061,0.03625 0.0199,0.07307 0.02779,0.11041c0.11955,0.53299 -0.00844,0.91538 -0.21412,1.18493l-0.61961,1.39412l-1.26652,-0.5629l-0.4773,0.11932c0,0 -1.45521,0.3638 -1.81902,-1.09141z" fill="#9966ff" stroke="none" stroke-width="0.5"/></g></g></svg>